<?xml version="1.0" standalone="no"?>
<svg width="64" height="64" viewBox="0 0 352 384" version="1.1" xmlns="http://www.w3.org/2000/svg">
  <path d="M336 112c16 -16 26 -35 0 -66c-25 -30 -42 -30 -64 -30c-24 0 -58 14 -93 40c-32 23 -46 34 -78 67c-34 35 -55 64 -79 107c-27 50 -24 74 -18 92c4 12 14 24 28 33l1 1c6 4 18 12 32 12c13 0 24 -6 34 -18l1 -1c11 -14 24 -31 32 -47c10 -21 10 -38 -1 -53 c-9 -12 -12 -19 -12 -23s5 -9 13 -18l1 -1c16 -18 20 -23 26 -29c1 -1 3 -2 4 -3l2 -2c7 -7 11 -12 29 -28l1 -1c7 -6 9 -8 12 -8c5 0 16 7 29 15c4 3 11 5 17 5c27 0 68 -29 83 -44z" transform="matrix(1,0,0,-1,0,384)"/>
</svg>