<?xml version="1.0" standalone="no"?>
<svg width="64" height="64" viewBox="0 0 350 384" version="1.1" xmlns="http://www.w3.org/2000/svg">
  <path d="M46 349c11 -5 18 -16 18 -29s-7 -24 -18 -29v-275c0 -9 -7 -16 -16 -16s-16 7 -16 16v278c-8 6 -14 15 -14 26s6 20 14 26v22c0 9 7 16 16 16s16 -7 16 -16v-19zM142 155c9 -6 15 -16 15 -27s-6 -21 -15 -27v-85c0 -9 -7 -16 -16 -16s-16 7 -16 16v84 c-10 5 -17 16 -17 28s7 23 17 28v212c0 9 7 16 16 16s16 -7 16 -16v-213zM238 285c10 -6 16 -16 16 -28s-6 -22 -16 -28v-213c0 -9 -7 -16 -16 -16s-16 7 -16 16v213c-10 6 -16 16 -16 28s6 22 16 28v83c0 9 7 16 16 16s16 -7 16 -16v-83zM350 65c0 -12 -6 -22 -16 -28v-21 c0 -9 -7 -16 -16 -16s-16 7 -16 16v21c-10 6 -16 16 -16 28s6 22 16 28v275c0 9 7 16 16 16s16 -7 16 -16v-275c10 -6 16 -16 16 -28z" transform="matrix(1,0,0,-1,0,384)"/>
</svg>